# xmcd
#
# Track frame offsets:
# 150
# 47793
# 83759
# 139914
# 155134
# 178533
# 192635
# 228926
#
# Disc length: 3183 seconds
#
#
# Revision: 0
# Processed by: cddbd v1.5.1PL0 Copyright (c) Steve Scherf et al.
# Submitted via: FreeRIP 2.93 
#
DISCID=6b0c6d08
DTITLE=Jimi Hendrix - The legends
DYEAR=1900
DGENRE=Blues
TTITLE0=Red house
TTITLE1=Wake up thismorning and you find yourself dead
TTITLE2=Bleeding heart
TTITLE3=Morrison's lament
TTITLE4=Tomorrow never knows
TTITLE5=Uranus rock
TTITLE6=Outside woman blues
TTITLE7=Sunshine of your love
EXTD=Raccolta della Gazzetta del Mezzogiorno\n
EXTT0=
EXTT1=
EXTT2=
EXTT3=
EXTT4=
EXTT5=
EXTT6=
EXTT7=
PLAYORDER=
